<svg xmlns="http://www.w3.org/2000/svg" width="93" height="30" fill="none" aria-hidden="true" data-testid="brand-icon-text"><g fill="#DF1067" clip-path="url(#a)"><path d="M0 11.848C0 7.695 2.748 5 7.007 5c1.225 0 2.44.222 3.424.602v3.91c-.846-.348-1.818-.57-2.77-.57-2.388 0-3.096 1.416-3.148 2.748H8.37v3.857H4.407v8.475H0V11.848Z"/><path fill-rule="evenodd" d="M9.046 16.952c0-4.597 3.15-7.45 7.472-7.45 4.322 0 7.471 2.853 7.471 7.45 0 4.597-3.149 7.45-7.471 7.45-4.323 0-7.472-2.853-7.472-7.45Zm7.472 3.488c1.765 0 2.99-1.416 2.99-3.477 0-2.06-1.225-3.477-2.99-3.477-1.765 0-2.99 1.416-2.99 3.477 0 2.06 1.225 3.477 2.99 3.477ZM32.275 9.502c-4.323 0-7.472 2.853-7.472 7.45 0 4.597 3.16 7.45 7.472 7.45 4.322 0 7.471-2.853 7.471-7.45 0-4.597-3.149-7.45-7.471-7.45Zm2.99 7.461c0 2.06-1.225 3.477-2.99 3.477-1.765 0-2.98-1.416-2.991-3.477 0-2.06 1.226-3.477 2.99-3.477 1.766 0 2.992 1.416 2.992 3.477ZM40.57 16.847c0-4.1 2.558-7.282 5.93-7.282 2.145 0 3.941 1.28 4.48 3.15V5.38h4.407v11.794c0 4.323-2.96 7.229-7.366 7.229-4.438 0-7.45-3.044-7.45-7.556Zm7.44 3.593c1.765 0 2.96-1.385 2.96-3.477 0-2.093-1.195-3.477-2.96-3.477-1.764 0-2.959 1.384-2.959 3.477 0 2.082 1.195 3.477 2.96 3.477ZM63.746 9.502c-4.322 0-7.471 2.853-7.471 7.45 0 4.597 3.149 7.45 7.471 7.45 4.323 0 7.472-2.853 7.472-7.45 0-4.597-3.15-7.45-7.472-7.45Zm2.991 7.461c0 2.06-1.226 3.477-2.99 3.477-1.766 0-2.992-1.416-2.992-3.477 0-2.06 1.226-3.477 2.991-3.477 1.765 0 2.991 1.416 2.991 3.477Z" clip-rule="evenodd"/><path d="M78.256 9.513c.624 0 1.194.052 1.744.243v3.857a6.466 6.466 0 0 0-1.141-.106c-1.49 0-2.315.793-2.315 2.315v8.211h-4.407v-8.476c.01-3.74 2.346-6.044 6.12-6.044Z"/><path fill-rule="evenodd" d="M81.3 13.623c.74-.137 1.796-.221 2.61-.221 2.832 0 4.132.95 4.132 2.726v1.089c-.623-1.596-1.955-2.442-3.889-2.442-2.97 0-4.84 1.85-4.84 4.788s1.881 4.787 4.84 4.787c1.934 0 3.266-.835 3.89-2.441v2.124h4.343V15.61c0-3.942-2.632-6.087-7.905-6.087-1.036 0-2.315.085-3.181.243v3.857Zm6.69 5.834c0 .898-.846 1.522-2.125 1.522s-2.124-.624-2.124-1.522.845-1.522 2.124-1.522c1.279 0 2.124.624 2.124 1.522Z" clip-rule="evenodd"/></g><defs><clipPath id="a"><path fill="#fff" d="M0 5h93v19.403H0z"/></clipPath></defs></svg>